<?xml version="1.0" encoding="utf-8"?>
<!-- Generator: Adobe Illustrator 16.0.0, SVG Export Plug-In . SVG Version: 6.00 Build 0)  -->
<!DOCTYPE svg PUBLIC "-//W3C//DTD SVG 1.1//EN" "http://www.w3.org/Graphics/SVG/1.1/DTD/svg11.dtd">
<svg version="1.1" id="Layer_1" xmlns="http://www.w3.org/2000/svg" xmlns:xlink="http://www.w3.org/1999/xlink" x="0px" y="0px"
	 width="50px" height="50px" viewBox="0 0 50 50" enable-background="new 0 0 50 50" xml:space="preserve">
<path fill="#404041" d="M25,4.9c6.5,0,7.3,0,9.9,0.1c6.6,0.3,9.7,3.5,10,10c0.1,2.6,0.1,3.4,0.1,9.9c0,6.5,0,7.3-0.1,9.9
	c-0.3,6.6-3.4,9.7-10,10c-2.6,0.1-3.4,0.1-9.9,0.1c-6.5,0-7.3,0-9.9-0.1c-6.7-0.3-9.7-3.5-10-10c-0.1-2.6-0.1-3.4-0.1-9.9
	c0-6.5,0-7.3,0.1-9.9c0.3-6.6,3.4-9.7,10-10C17.7,4.9,18.5,4.9,25,4.9z M25,0.5c-6.7,0-7.5,0-10.1,0.1C6,1.1,1.1,6,0.6,14.9
	C0.5,17.5,0.5,18.3,0.5,25s0,7.5,0.1,10.1C1.1,44,6,48.9,14.9,49.4c2.6,0.1,3.4,0.1,10.1,0.1s7.5,0,10.1-0.1
	C44,48.9,48.9,44,49.4,35.1c0.1-2.6,0.1-3.4,0.1-10.1s0-7.5-0.1-10.1C49,6,44,1.1,35.1,0.6C32.5,0.5,31.7,0.5,25,0.5z M25,12.4
	c-6.9,0-12.6,5.6-12.6,12.6c0,6.9,5.6,12.6,12.6,12.6c6.9,0,12.6-5.6,12.6-12.6C37.6,18.1,31.9,12.4,25,12.4z M25,33.2
	c-4.5,0-8.2-3.7-8.2-8.2c0-4.5,3.7-8.2,8.2-8.2s8.2,3.7,8.2,8.2C33.2,29.5,29.5,33.2,25,33.2z M38.1,9c-1.6,0-2.9,1.3-2.9,2.9
	c0,1.6,1.3,2.9,2.9,2.9c1.6,0,2.9-1.3,2.9-2.9C41,10.3,39.7,9,38.1,9z"/>
</svg>
