<?xml version="1.0" encoding="utf-8"?>
<!-- Generator: Adobe Illustrator 16.0.0, SVG Export Plug-In . SVG Version: 6.00 Build 0)  -->
<!DOCTYPE svg PUBLIC "-//W3C//DTD SVG 1.1//EN" "http://www.w3.org/Graphics/SVG/1.1/DTD/svg11.dtd">
<svg version="1.1" id="Layer_1" xmlns="http://www.w3.org/2000/svg" xmlns:xlink="http://www.w3.org/1999/xlink" x="0px" y="0px"
	 width="50px" height="50px" viewBox="0 0 50 50" enable-background="new 0 0 50 50" xml:space="preserve">
<path fill="#404041" d="M44.6,0.5H5.4c-2.7,0-4.9,2.2-4.9,4.9v39.2c0,2.7,2.2,4.9,4.9,4.9h39.1c2.7,0,4.9-2.2,4.9-4.9V5.4
	C49.5,2.7,47.3,0.5,44.6,0.5z M16.2,39.3H9.6v-21h6.6V39.3z M12.9,15.7c-2.1,0-3.4-1.5-3.4-3.3c0-1.8,1.4-3.3,3.5-3.3
	c2.1,0,3.4,1.4,3.5,3.3C16.4,14.3,15.1,15.7,12.9,15.7z M40.3,39.3h-6.6V27.7c0-2.7-0.9-4.5-3.3-4.5c-1.8,0-2.9,1.2-3.4,2.4
	c-0.2,0.4-0.2,1-0.2,1.6v12.1h-6.6V25c0-2.6-0.1-4.8-0.2-6.7h5.7l0.3,2.9h0.1c0.9-1.4,3-3.4,6.5-3.4c4.3,0,7.6,2.9,7.6,9V39.3z"/>
</svg>
