<?xml version="1.0" encoding="utf-8"?>
<!-- Generator: Adobe Illustrator 16.0.0, SVG Export Plug-In . SVG Version: 6.00 Build 0)  -->
<!DOCTYPE svg PUBLIC "-//W3C//DTD SVG 1.1//EN" "http://www.w3.org/Graphics/SVG/1.1/DTD/svg11.dtd">
<svg version="1.1" xmlns="http://www.w3.org/2000/svg" xmlns:xlink="http://www.w3.org/1999/xlink" x="0px" y="0px"
	 width="1086.1px" height="1080px" viewBox="0 0 1086.1 1080" enable-background="new 0 0 1086.1 1080" xml:space="preserve">
<g id="Layer_1">
	<g id="UX_disain">
		<g>
			<path fill="#3E3E3E" d="M310.9,144.9c16.7,0,30.3-13.6,30.3-30.4c0-16.7-13.6-30.3-30.3-30.3s-30.3,13.6-30.3,30.3
				C280.5,131.3,294.1,144.9,310.9,144.9z M310.9,103.1c6.3,0,11.4,5.1,11.4,11.4c0,6.3-5.1,11.4-11.4,11.4s-11.4-5.1-11.4-11.4
				C299.4,108.2,304.6,103.1,310.9,103.1z"/>
			<path fill="#3E3E3E" d="M391.6,144.9c16.7,0,30.3-13.6,30.3-30.4c0-16.7-13.6-30.3-30.3-30.3s-30.3,13.6-30.3,30.3
				C361.2,131.3,374.8,144.9,391.6,144.9z M391.6,103.1c6.3,0,11.4,5.1,11.4,11.4c0,6.3-5.1,11.4-11.4,11.4s-11.4-5.1-11.4-11.4
				C380.1,108.2,385.3,103.1,391.6,103.1z"/>
			<path fill="#3E3E3E" d="M472.3,144.9c16.7,0,30.3-13.6,30.3-30.4c0-16.7-13.6-30.3-30.3-30.3c-16.7,0-30.3,13.6-30.3,30.3
				C442,131.3,455.6,144.9,472.3,144.9z M472.3,103.1c6.3,0,11.4,5.1,11.4,11.4c0,6.3-5.1,11.4-11.4,11.4s-11.4-5.1-11.4-11.4
				C460.9,108.2,466,103.1,472.3,103.1z"/>
			<path fill="#41A291" d="M70.4,923.9h182c5.2,0,9.5-4.2,9.5-9.5s-4.2-9.5-9.5-9.5h-182c-5.2,0-9.5,4.2-9.5,9.5
				S65.2,923.9,70.4,923.9z"/>
			<path fill="#41A291" d="M70.4,980.5h182c5.2,0,9.5-4.2,9.5-9.5c0-5.2-4.2-9.5-9.5-9.5h-182c-5.2,0-9.5,4.2-9.5,9.5
				S65.2,980.5,70.4,980.5z"/>
			<path fill="#3E3E3E" d="M1050.4,845H934V721.6c0-5.2-4.5-10.6-9.8-10.6H553V561h272c13.4,0,24-10,24-23.4V63.3
				c0-13.4-10.6-25.3-24-25.3H261.8C248.4,38,238,49.9,238,63.3v474.3c0,13.4,10.4,23.4,23.8,23.4H534v150H161.4
				c-5.2,0-9.4,5.3-9.4,10.6V845H35.2C17.4,845,3,860,3,877.8v125.5c0,17.9,14.4,31.7,32.2,31.7h252.4c17.9,0,32.4-13.8,32.4-31.7
				V877.8c0-17.9-14.5-32.8-32.4-32.8H171V730h363v115H417.2c-17.9,0-32.2,15-32.2,32.8v125.5c0,17.9,14.4,31.7,32.2,31.7h252.4
				c17.9,0,32.4-13.8,32.4-31.7V877.8c0-17.9-14.5-32.8-32.4-32.8H553V730h362v115H798c-17.9,0-32,15-32,32.8v125.5
				c0,17.9,14.2,31.7,32,31.7h252.4c17.9,0,32.6-13.8,32.6-31.7V877.8C1083,860,1068.3,845,1050.4,845z M287.6,864
				c7.4,0,13.4,6.4,13.4,13.8v125.5c0,7.5-5.9,12.7-13.4,12.7H35.2c-7.4,0-13.2-5.3-13.2-12.7V877.8c0-7.4,5.8-13.8,13.2-13.8H287.6
				z M257,63.3c0-3,1.8-6.3,4.8-6.3H825c3,0,6,3.3,6,6.3V103H561.6c-5.2,0-9.4,4.3-9.4,9.5s4.2,9.5,9.4,9.5H831v46H257V63.3z
				 M257,187h574v299H257V187z M669.6,864c7.4,0,13.4,6.4,13.4,13.8v125.5c0,7.5-5.9,12.7-13.4,12.7H417.2
				c-7.4,0-13.2-5.3-13.2-12.7V877.8c0-7.4,5.8-13.8,13.2-13.8H669.6z M261.8,542c-3,0-4.8-1.5-4.8-4.4V505h574v32.6
				c0,3-3,4.4-6,4.4H261.8z M1064,1003.2c0,7.5-6.2,12.8-13.7,12.8h-252c-7.5,0-13.3-5.3-13.3-12.8v-125c0-7.5,5.8-14.2,13.3-14.2
				h252c7.5,0,13.7,6.7,13.7,14.2V1003.2z"/>
			<path fill="#FF6666" d="M1015.2,905h-182c-5.2,0-9.5,4.2-9.5,9.5s4.2,9.5,9.5,9.5h182c5.2,0,9.5-4.2,9.5-9.5
				C1024.7,909.3,1020.5,905,1015.2,905z"/>
			<path fill="#FF6666" d="M1015.2,961.6h-182c-5.2,0-9.5,4.2-9.5,9.5c0,5.2,4.2,9.5,9.5,9.5h182c5.2,0,9.5-4.2,9.5-9.5
				C1024.7,965.9,1020.5,961.6,1015.2,961.6z"/>
			<path fill="#41A291" d="M452.4,923.9h182c5.2,0,9.5-4.2,9.5-9.5s-4.2-9.5-9.5-9.5h-182c-5.2,0-9.5,4.2-9.5,9.5
				S447.2,923.9,452.4,923.9z"/>
			<path fill="#FF6666" d="M452.4,980.5h182c5.2,0,9.5-4.2,9.5-9.5c0-5.2-4.2-9.5-9.5-9.5h-182c-5.2,0-9.5,4.2-9.5,9.5
				S447.2,980.5,452.4,980.5z"/>
		</g>
		<path fill="#FF6666" d="M419,237.5c0,5.2-4.2,9.5-9.5,9.5H257v-19h152.5C414.7,228,419,232.3,419,237.5z"/>
		<path fill="#41A291" d="M831,395v19H670.7c-5.2,0-9.5-4.3-9.5-9.5c0-5.2,4.2-9.5,9.5-9.5H831z"/>
	</g>
</g>
<g id="Components">
</g>
</svg>
