<?xml version="1.0" encoding="utf-8"?>
<!-- Generator: Adobe Illustrator 16.0.0, SVG Export Plug-In . SVG Version: 6.00 Build 0)  -->
<!DOCTYPE svg PUBLIC "-//W3C//DTD SVG 1.1//EN" "http://www.w3.org/Graphics/SVG/1.1/DTD/svg11.dtd">
<svg version="1.1" xmlns="http://www.w3.org/2000/svg" xmlns:xlink="http://www.w3.org/1999/xlink" x="0px" y="0px"
	 width="1086.1px" height="1080px" viewBox="0 0 1086.1 1080" enable-background="new 0 0 1086.1 1080" xml:space="preserve">
<g id="Layer_1">
	<g id="Colors" display="none">
		<circle display="inline" fill="#41A291" cx="210.8" cy="844" r="207.3"/>
		<g display="inline">
			<circle fill="#FF6666" cx="878.8" cy="298" r="207.3"/>
		</g>
	</g>
	<g id="Community_management">
		<path fill="#3E3E3E" d="M765.6,733.6c-11.3-15.5-24.1-29.2-38.2-42.2l-23-19c-31.2-22-67-38-105-45.8c7.7-5.5,15.1-12.1,22-19.6
			l20-25.8c2-3,3.8-6.1,5.7-9.3L656,555c15.3-32.1,24.5-69.5,24.5-106.6c0-43.8-13.8-79.8-40-104.2c-4.3-4-8.8-7.6-13.6-10.9
			l-16.4-9.5c-19.1-9.1-41.3-13.9-65.8-13.9c-24.5,0-46.7,4.8-65.8,13.9l-16.4,9.5c-4.8,3.3-9.3,6.9-13.6,10.9
			c-26.2,24.4-40,60.4-40,104.2c0,37.1,9.2,74.5,24.5,106.6l8.9,16.9c1.8,3.2,3.7,6.3,5.7,9.3l20,26c6.9,7.5,14.3,14.2,22,19.7
			c-38,7.8-73.8,23.6-105,46l-19.5,15.6l0,0l-3.5,2.8c0,0-0.1,0-0.1,0.1c-14,12.6-26.8,26.6-38.1,42.1c-2.1,2.8-2.4,6.6-0.8,9.7
			c1.6,3.1,4.8,5.1,8.2,5.1h427c3.5,0,6.7-2,8.2-5.1C767.9,740.1,767.6,736.4,765.6,733.6z M350.1,729.4
			c42.7-50,103.4-82,169.1-88.5c4.3-0.4,7.7-3.7,8.3-7.9c0.5-4.3-1.9-8.3-6-9.8c-51.1-18.7-94.3-98.5-94.3-174.5
			c0-10,0.8-19.2,2.4-28.2h155c5.1,0,9.2-4.4,9.2-9.5c0-5.1-4.1-9.5-9.2-9.5H434.1c15-46,54-73,110.5-73
			c73.5,0,117.4,44.9,117.4,120c0,76.1-43.2,156.1-94.3,174.8c-4,1.5-6.5,5.6-6,9.8c0.6,4.3,4,7.5,8.3,7.9
			c65.7,6.5,126.4,38.5,169.1,88.5H350.1z"/>
		<path fill="#3E3E3E" d="M1051.5,509.4h-44.1c-7.3-113-55.3-219.6-136.1-300.2C790.5,128.6,683.8,80.9,570.8,73.9V28.2
			c0-15.5-13.2-27.8-28.7-27.8h-5c-15.5,0-28.4,12.3-28.4,27.8v45.9c-112,7.7-218.3,55.8-298.4,136.2
			c-80.1,80.4-127.8,186-135.1,299H27.7c-15.5,0-28,12.7-28,28.2v5c0,15.5,12.4,27.8,28,27.8h47.5c7.3,113,55,218.9,135.1,299.2
			C290.5,950,396.8,998.3,508.8,1006v45.9c0,15.5,12.9,28.4,28.4,28.4h5c15.5,0,28.7-12.9,28.7-28.4v-45.7
			c113-6.9,219.7-54.9,300.5-135.5c80.8-80.5,128.7-186.4,136.1-300.4h44.1c15.5,0,28.3-12.3,28.3-27.8v-5
			C1079.8,522.1,1067,509.4,1051.5,509.4z M570.8,92.4c222,14.3,403,194.9,418.1,416.9h-22.3c-7.3-102-50.9-198.5-124.1-271.4
			c-73.1-72.8-169.7-116.4-271.7-123.3V92.4z M527.8,28.2c0-5.3,4-9.8,9.4-9.8h5c5.3,0,9.7,4.5,9.7,9.8v173c0,5.3-4.4,9.2-9.7,9.2
			h-5c-5.3,0-9.4-3.9-9.4-9.2V28.2z M508.8,92.6V115c-101,7.7-197.2,51.5-269.6,124.2c-72.4,72.7-115.8,168.2-123.1,270.2H93.8
			C108.8,285.4,284.8,108.4,508.8,92.6z M27.7,552.4c-5.3,0-10-4.5-10-9.8v-5c0-5.3,4.6-9.2,10-9.2h173c5.3,0,10.1,3.9,10.1,9.2v5
			c0,5.3-4.8,9.8-10.1,9.8H27.7z M508.8,987.5c-224-15.8-400-193.1-415-417.1h22.3c7.3,102,50.7,197.7,123.1,270.4
			c72.4,72.7,168.6,116.7,269.6,124.4V987.5z M551.8,1051.9c0,5.3-4.4,9.4-9.7,9.4h-5c-5.3,0-9.4-4.1-9.4-9.4V879
			c0-5.3,4-9.6,9.4-9.6h5c5.3,0,9.7,4.3,9.7,9.6V1051.9z M542.1,850.4h-5c-15.5,0-28.4,13.1-28.4,28.6v67.7
			c-201-15.7-359.4-175.3-374.2-376.3h66.1c15.5,0,28.1-12.3,28.1-27.8v-5c0-15.5-12.6-28.2-28.1-28.2h-66.1
			c14.8-201,173.2-360.2,374.2-375.9v67.7c0,15.5,12.9,28.2,28.4,28.2h5c15.5,0,28.7-12.7,28.7-28.2v-67.9
			c202,14.1,362.3,173.1,377.3,376.1h-69.5c-15.5,0-27.8,12.7-27.8,28.2v5c0,15.5,12.2,27.8,27.8,27.8H948
			c-14.9,203-175.3,362.4-377.3,376.5V879C570.8,863.5,557.6,850.4,542.1,850.4z M570.8,987.7v-22.3c102-6.9,198.6-50.6,271.7-123.5
			c73.1-72.8,116.8-168.6,124.1-271.6h22.3C973.8,792.4,792.8,973.4,570.8,987.7z M1061.8,542.5c0,5.3-5,9.8-10.3,9.8h-173
			c-5.3,0-9.8-4.5-9.8-9.8v-5c0-5.3,4.4-9.2,9.8-9.2h173c5.3,0,10.3,3.9,10.3,9.2V542.5z"/>
		<path fill="#FF6666" d="M692,584.1c-0.5,4.3-4,7.6-8.3,8c-21.4,2.1-42.3,7.1-62.3,14.9l20-25.8c4.4-1.2,8.8-2.3,13.2-3.2
			c-2.6-1.9-5.1-3.9-7.6-6.1L656,555c9.6,9,19.7,15.5,30.1,19.3C690.1,575.7,692.6,579.8,692,584.1z"/>
		<path fill="#FF6666" d="M913.1,686.3c-1.6,3.1-4.8,5.1-8.2,5.1H727.4l-23-19h181.3c-39.4-45-95-74.6-155.2-80.5
			c-4.3-0.4-7.7-3.5-8.3-7.8c-0.5-4.3,1.9-8.4,6-9.9c47.1-17.2,86.8-91.1,86.8-161.3c0-12-1.2-22.5-3.6-33.5h-64.4
			c-5.1,0-9.2-3.9-9.2-9s4.1-9,9.2-9h58.6c-15.7-38-50.1-58.6-98.5-58.6c-33.4,0-61.5,10.8-80.4,30.6l-16.4-9.4
			c22.3-25.6,56.4-39.7,96.8-39.7c36,0,66.8,11,89.2,31.9c24.4,22.7,37.3,56.3,37.3,97c0,66.1-31.5,133.4-74.1,164.8
			c60.9,12.8,115.5,47.8,152.8,98.7C914.4,679.4,914.7,683.2,913.1,686.3z"/>
		<path fill="#41A291" d="M467.7,607.1c-20-7.8-40.9-12.9-62.3-15c-4.3-0.4-7.7-3.8-8.3-8c-0.5-4.3,1.9-8.3,6-9.8
			c10.3-3.8,20.4-10.3,30.1-19.3l8.9,16.9c-2.5,2.2-5,4.2-7.6,6.1c4.5,0.9,8.9,2,13.2,3.2L467.7,607.1z"/>
		<path fill="#41A291" d="M478.8,323.9l-16.4,9.5c-18.9-19.8-47.1-30.7-80.5-30.7c-67.6,0-108.1,41.3-108.1,110.4v0.3h62.7
			c5.1,0,9.2,4.4,9.2,9.5s-4.1,9.5-9.2,9.5H275c6.2,64,43,126.5,85.9,142.1c4.1,1.5,6.5,5.4,6,9.7c-0.5,4.3-4,7.3-8.3,7.7
			c-60.2,5.9-115.8,35.4-155.2,80.4h181.3l-23,19H184.3c-3.5,0-6.7-2-8.2-5.1c-1.6-3.1-1.3-6.8,0.8-9.6
			c37.3-50.9,91.9-85.9,152.8-98.7c-42.5-31.5-74-98.7-74-164.8c0-40.7,12.9-74.3,37.3-97c22.4-20.8,53.2-31.9,89.2-31.9
			C422.4,284.2,456.4,298.3,478.8,323.9z"/>
	</g>
</g>
<g id="Components">
</g>
</svg>
