<?xml version="1.0" encoding="utf-8"?>
<!-- Generator: Adobe Illustrator 16.0.0, SVG Export Plug-In . SVG Version: 6.00 Build 0)  -->
<!DOCTYPE svg PUBLIC "-//W3C//DTD SVG 1.1//EN" "http://www.w3.org/Graphics/SVG/1.1/DTD/svg11.dtd">
<svg version="1.1" id="Layer_1" xmlns="http://www.w3.org/2000/svg" xmlns:xlink="http://www.w3.org/1999/xlink" x="0px" y="0px"
	 width="1086.1px" height="1080px" viewBox="0 0 1086.1 1080" enable-background="new 0 0 1086.1 1080" xml:space="preserve">
<g id="Layer_1_1_">
	<g id="Colors" display="none">
		<circle display="inline" fill="#41A291" cx="210.8" cy="844" r="207.3"/>
		<g display="inline">
			<circle fill="#FF6666" cx="878.8" cy="298" r="207.3"/>
		</g>
	</g>
	<g id="Community_management">
		<path fill="#3E3E3E" d="M765.6,733.6C754.3,718.1,741.5,704.4,727.4,691.4l-23-19c-31.2-22-67-38-105-45.801
			c7.699-5.5,15.1-12.1,22-19.6l20-25.8c2-3,3.8-6.101,5.699-9.3L656,555c15.3-32.1,24.5-69.5,24.5-106.6
			c0-43.801-13.8-79.801-40-104.2c-4.3-4-8.8-7.601-13.6-10.9l-16.4-9.5c-19.1-9.1-41.3-13.899-65.8-13.899s-46.7,4.8-65.8,13.899
			l-16.4,9.5c-4.8,3.3-9.3,6.9-13.6,10.9c-26.2,24.399-40,60.399-40,104.2c0,37.1,9.2,74.5,24.5,106.6l8.899,16.9
			c1.8,3.199,3.7,6.3,5.7,9.3l20,26c6.9,7.5,14.3,14.2,22,19.7c-38,7.8-73.8,23.6-105,46l-19.5,15.6l0,0l-3.5,2.8
			c0,0-0.1,0-0.1,0.101c-14,12.6-26.8,26.6-38.1,42.1c-2.1,2.8-2.4,6.6-0.8,9.7c1.6,3.1,4.8,5.1,8.2,5.1h427c3.5,0,6.7-2,8.2-5.1
			C767.9,740.1,767.6,736.4,765.6,733.6z M350.1,729.4c42.7-50,103.4-82,169.1-88.5c4.3-0.4,7.7-3.7,8.3-7.9c0.5-4.3-1.9-8.3-6-9.8
			c-51.1-18.7-94.3-98.5-94.3-174.5c0-10,0.8-19.2,2.399-28.2h155c5.101,0,9.2-4.4,9.2-9.5s-4.1-9.5-9.2-9.5H434.1
			c15-46,54-73,110.5-73c73.5,0,117.4,44.9,117.4,120c0,76.1-43.2,156.1-94.3,174.8c-4,1.5-6.5,5.601-6,9.8c0.6,4.301,4,7.5,8.3,7.9
			c65.7,6.5,126.4,38.5,169.1,88.5h-389V729.4z"/>
		<path fill="#3E3E3E" d="M1051.5,509.4h-44.1c-7.3-113-55.301-219.601-136.101-300.2C790.5,128.6,683.8,80.9,570.8,73.9V28.2
			c0-15.5-13.2-27.8-28.7-27.8h-5c-15.5,0-28.399,12.3-28.399,27.8v45.9c-112,7.7-218.3,55.8-298.4,136.2
			c-80.1,80.4-127.8,186-135.1,299H27.7c-15.5,0-28,12.7-28,28.2v5c0,15.5,12.4,27.8,28,27.8h47.5c7.3,113,55,218.9,135.1,299.2
			C290.5,950,396.8,998.3,508.8,1006v45.9c0,15.5,12.9,28.399,28.4,28.399h5c15.5,0,28.7-12.899,28.7-28.399v-45.7
			c113-6.9,219.699-54.9,300.5-135.5c80.8-80.5,128.7-186.4,136.1-300.4h44.1c15.5,0,28.301-12.3,28.301-27.8v-5
			C1079.8,522.1,1067,509.4,1051.5,509.4z M570.8,92.4c222,14.3,403,194.9,418.101,416.9h-22.3c-7.301-102-50.9-198.5-124.101-271.4
			c-73.1-72.8-169.7-116.4-271.7-123.3V92.4L570.8,92.4z M527.8,28.2c0-5.3,4-9.8,9.4-9.8h5c5.3,0,9.7,4.5,9.7,9.8v173
			c0,5.3-4.4,9.2-9.7,9.2h-5c-5.3,0-9.4-3.9-9.4-9.2V28.2z M508.8,92.6V115c-101,7.7-197.2,51.5-269.6,124.2
			c-72.4,72.7-115.8,168.2-123.1,270.2H93.8C108.8,285.4,284.8,108.4,508.8,92.6z M27.7,552.4c-5.3,0-10-4.5-10-9.801v-5
			c0-5.3,4.6-9.199,10-9.199h173c5.3,0,10.1,3.899,10.1,9.199v5c0,5.301-4.8,9.801-10.1,9.801H27.7z M508.8,987.5
			c-224-15.8-400-193.1-415-417.1h22.3c7.3,102,50.7,197.699,123.1,270.399c72.4,72.7,168.6,116.7,269.6,124.4V987.5z M551.8,1051.9
			c0,5.3-4.399,9.399-9.7,9.399h-5c-5.3,0-9.399-4.1-9.399-9.399V879c0-5.3,4-9.6,9.399-9.6h5c5.301,0,9.7,4.3,9.7,9.6V1051.9z
			 M542.1,850.4h-5c-15.5,0-28.399,13.1-28.399,28.6v67.7c-201-15.7-359.4-175.3-374.2-376.3h66.1c15.5,0,28.1-12.301,28.1-27.801
			v-5c0-15.5-12.6-28.199-28.1-28.199h-66.1c14.8-201,173.2-360.2,374.2-375.9v67.7c0,15.5,12.899,28.2,28.399,28.2h5
			c15.5,0,28.7-12.7,28.7-28.2v-67.9C772.8,147.4,933.1,306.4,948.1,509.4h-69.5c-15.5,0-27.8,12.699-27.8,28.199v5
			c0,15.5,12.2,27.801,27.8,27.801H948c-14.9,203-175.3,362.399-377.3,376.5V879C570.8,863.5,557.6,850.4,542.1,850.4z M570.8,987.7
			v-22.3c102-6.9,198.601-50.601,271.7-123.5C915.6,769.1,959.3,673.3,966.6,570.3h22.3C973.8,792.4,792.8,973.4,570.8,987.7z
			 M1061.8,542.5c0,5.3-5,9.8-10.3,9.8h-173c-5.3,0-9.8-4.5-9.8-9.8v-5c0-5.3,4.399-9.2,9.8-9.2h173c5.3,0,10.3,3.9,10.3,9.2V542.5z
			"/>
		<path fill="#EA598A" d="M692,584.1c-0.5,4.301-4,7.601-8.3,8c-21.4,2.101-42.3,7.101-62.3,14.9l20-25.8
			c4.399-1.2,8.8-2.3,13.199-3.2c-2.6-1.9-5.1-3.9-7.6-6.1l9-16.9c9.6,9,19.7,15.5,30.1,19.3C690.1,575.7,692.6,579.8,692,584.1z"/>
		<path fill="#EA598A" d="M913.1,686.3c-1.6,3.101-4.8,5.101-8.199,5.101H727.4l-23-19h181.3c-39.4-45-95-74.601-155.2-80.5
			c-4.3-0.4-7.7-3.5-8.3-7.801c-0.5-4.3,1.899-8.399,6-9.899C775.3,557,815,483.1,815,412.9c0-12-1.2-22.5-3.6-33.5H747
			c-5.1,0-9.2-3.9-9.2-9c0-5.101,4.101-9,9.2-9h58.6c-15.699-38-50.1-58.601-98.5-58.601c-33.399,0-61.5,10.8-80.399,30.601
			l-16.4-9.4c22.3-25.6,56.4-39.7,96.8-39.7c36,0,66.8,11,89.2,31.9c24.4,22.7,37.3,56.3,37.3,97c0,66.1-31.5,133.399-74.1,164.8
			c60.9,12.8,115.5,47.8,152.8,98.7C914.4,679.4,914.7,683.2,913.1,686.3z"/>
		<path fill="#41A291" d="M467.7,607.1c-20-7.8-40.9-12.899-62.3-15c-4.3-0.399-7.7-3.8-8.3-8c-0.5-4.3,1.9-8.3,6-9.8
			c10.3-3.8,20.4-10.3,30.1-19.3l8.899,16.9c-2.5,2.199-5,4.199-7.6,6.1c4.5,0.9,8.9,2,13.2,3.2L467.7,607.1z"/>
		<path fill="#41A291" d="M478.8,323.9l-16.399,9.5c-18.9-19.801-47.101-30.7-80.5-30.7c-67.6,0-108.1,41.3-108.1,110.399v0.301
			h62.7c5.1,0,9.2,4.399,9.2,9.5c0,5.1-4.1,9.5-9.2,9.5H275c6.2,64,43,126.5,85.9,142.1c4.1,1.5,6.5,5.4,6,9.7s-4,7.3-8.3,7.7
			C298.4,597.8,242.8,627.3,203.4,672.3h181.3l-23,19H184.3c-3.5,0-6.7-2-8.2-5.1c-1.6-3.101-1.3-6.8,0.8-9.601
			C214.2,625.7,268.8,590.7,329.7,577.9c-42.5-31.5-74-98.7-74-164.801c0-40.699,12.9-74.3,37.3-97
			c22.4-20.799,53.2-31.899,89.2-31.899C422.4,284.2,456.4,298.3,478.8,323.9z"/>
	</g>
</g>
<g id="Components">
</g>
</svg>
