<?xml version="1.0" encoding="utf-8"?>
<!-- Generator: Adobe Illustrator 16.0.0, SVG Export Plug-In . SVG Version: 6.00 Build 0)  -->
<!DOCTYPE svg PUBLIC "-//W3C//DTD SVG 1.1//EN" "http://www.w3.org/Graphics/SVG/1.1/DTD/svg11.dtd">
<svg version="1.1" id="Layer_1" xmlns="http://www.w3.org/2000/svg" xmlns:xlink="http://www.w3.org/1999/xlink" x="0px" y="0px"
	 width="1086.1px" height="1080px" viewBox="0 0 1086.1 1080" enable-background="new 0 0 1086.1 1080" xml:space="preserve">
<g id="Layer_1_1_">
	<g id="Marketing">
		<path fill="#3E3E3E" d="M1050.6,52h-43.5c-17.8,0-32,15.1-32,33v36.7l-874,187v-10.4c0-17.8-14.4-33.3-32.2-33.3H35.3
			c-17.8,0-32.2,15.4-32.2,33.3V738c0,17.8,14.3,32,32.2,32h33.6c17.8,0,32.2-14.2,32.2-32v-10.3l48.7,10.399
			c-1.7,62.601,17.9,124.2,55.6,174.301c39.6,52.6,97,89.199,161.4,103.1c19.1,4.1,38.5,6.2,57.9,6.2c45.8,0,91.1-11.4,131.6-33.7
			c55.101-30.2,98.4-78.6,122.4-136.6l296.5,63.5v36.5c0,17.8,14.1,31.699,32,31.699h43.5c17.8,0,32.5-13.8,32.5-31.699V85
			C1083.1,67.1,1068.4,52,1050.6,52z M82.1,738c0,7.4-5.8,13-13.2,13H35.3c-7.5,0-13.2-5.5-13.2-13V298.3c0-7.4,5.7-14.3,13.2-14.3
			h33.6c7.5,0,13.2,6.8,13.2,14.3V738L82.1,738z M370.8,997.1C250.3,971.2,166.7,864.9,168.6,742.2l50.3,10.8
			c1.6,44.4,17.4,87.6,45,122.3c29.4,37,71.2,62.9,117.5,72.9c14.3,3.1,28.8,4.6,43.2,4.6c32.5,0,64.801-7.7,93.801-22.7
			C557.9,909.7,590.1,876.7,609.5,836.7l50.3,10.8C611.6,960.4,491.7,1023.1,370.8,997.1z M237.9,757l352.6,75.5
			c-38.4,74.3-122.9,114.9-205.2,97.2C302,911.7,242.8,841.5,237.9,757z M975.1,895.5l-73-15.5V475.5c0-5.2-4.3-9.4-9.5-9.4
			c-5.199,0-9.5,4.2-9.5,9.4V876l-603-129.4V674.9c0-5.2-4.3-9.4-9.5-9.4c-5.2,0-9.5,4.2-9.5,9.4V742.6l-99-21.1V579.6
			c0-5.199-4.3-9.399-9.5-9.399c-5.2,0-9.5,4.2-9.5,9.399V717.4l-42-9V328l732-156.5V214c0,5.2,3.801,9.4,9,9.4c5.2,0,9-4.2,9-9.4
			v-46.6l124-26.4V895.5z M1064.1,951.3c0,7.4-6.1,12.7-13.5,12.7h-10.5V672.7c0-5.2-4.3-9.4-9.5-9.4c-5.199,0-9.5,4.2-9.5,9.4V964
			h-14c-7.399,0-13-5.2-13-12.7V85c0-7.5,5.5-14,13-14h43.601c7.399,0,13.5,6.5,13.5,14v866.3H1064.1z"/>
		<path fill="#41A291" d="M975.1,304.8v19L127.6,442.7c-0.4,0.1-1,0.1-1.4,0.1c-4.6,0-8.7-3.399-9.4-8.1c-0.7-5.2,3-9.9,8.2-10.601
			L975.1,304.8z"/>
		<path fill="#EA598A" d="M975.1,362.9v19L526,447c-0.5,0.1-1.1,0.1-1.5,0.1c-4.6,0-8.6-3.399-9.3-8.1c-0.7-5.2,3-9.9,8.1-10.7
			L975.1,362.9z"/>
	</g>
</g>
<g id="Components">
</g>
</svg>
