<?xml version="1.0" encoding="utf-8"?>
<!-- Generator: Adobe Illustrator 16.0.0, SVG Export Plug-In . SVG Version: 6.00 Build 0)  -->
<!DOCTYPE svg PUBLIC "-//W3C//DTD SVG 1.1//EN" "http://www.w3.org/Graphics/SVG/1.1/DTD/svg11.dtd">
<svg version="1.1" id="Layer_1" xmlns="http://www.w3.org/2000/svg" xmlns:xlink="http://www.w3.org/1999/xlink" x="0px" y="0px"
	 width="1086.1px" height="1080px" viewBox="0 0 1086.1 1080" enable-background="new 0 0 1086.1 1080" xml:space="preserve">
<g id="Layer_1_1_">
	<g id="Coding_1_">
		<g id="Coding">
			<g>
				<path fill="#EA598A" d="M782.6,539.7l-106.1,79.8c-11.6,8.8-14,25.4-5.2,37l13,17.3c5,6.601,12.9,10.5,21.2,10.5
					c5.8,0,11.2-1.8,15.8-5.3l165.3-124.3c6-4.5,9.4-10.9,9.4-17.8c0-6.801-3.4-13.301-9.4-17.7L721.2,395
					c-4.601-3.5-10.101-5.3-15.8-5.3c-8.301,0-16.2,3.899-21.2,10.5l-13,17.3c-8.8,11.6-6.4,28.2,5.2,37l106.1,79.8
					c1.2,0.9,1.8,1.9,1.8,2.7S783.7,538.8,782.6,539.7z M793.9,519.2L687.8,439.4c-3.3-2.5-4-7.301-1.5-10.601l13-17.3
					c1.4-1.9,3.7-3,6.101-3c1.199,0,2.899,0.3,4.5,1.5l165.3,124.3c1.2,0.9,1.8,1.9,1.8,2.7s-0.7,1.8-1.8,2.7L709.9,664
					c-1.7,1.2-3.4,1.5-4.5,1.5c-2.4,0-4.7-1.1-6.101-3l-13-17.3c-2.5-3.3-1.8-8.101,1.5-10.601L793.9,554.8
					c6-4.5,9.399-10.899,9.399-17.8C803.3,530.2,799.8,523.7,793.9,519.2z"/>
				<path fill="#41A291" d="M199.6,554.7L364.9,679c4.6,3.5,10.1,5.3,15.8,5.3c8.3,0,16.2-3.899,21.2-10.5l13-17.3
					c8.8-11.6,6.4-28.2-5.2-37l-106.1-79.8c-1.2-0.9-1.8-1.9-1.8-2.7s0.7-1.8,1.8-2.7l106.1-79.8c11.6-8.8,14-25.4,5.2-37l-13-17.3
					c-5-6.601-12.9-10.5-21.2-10.5c-5.8,0-11.2,1.8-15.8,5.3L199.6,519.2c-6,4.5-9.4,10.899-9.4,17.7
					C190.3,543.8,193.7,550.3,199.6,554.7z M211,534.3L376.2,410c1.7-1.2,3.4-1.5,4.5-1.5c2.4,0,4.7,1.1,6.1,3l13,17.3
					c2.5,3.3,1.8,8.101-1.5,10.601l-106.1,79.8c-6,4.5-9.4,10.899-9.4,17.7c0,6.8,3.4,13.3,9.4,17.8l106.1,79.8
					c3.3,2.5,4,7.3,1.5,10.6l-13,17.301c-1.4,1.899-3.7,3-6.1,3c-1.2,0-2.9-0.301-4.5-1.5L210.9,539.7c-1.2-0.9-1.8-1.9-1.8-2.7
					S209.8,535.2,211,534.3z"/>
				<path fill="#3E3E3E" d="M469.8,672.2l19.7,8.899c3.4,1.601,7.1,2.4,10.9,2.4c10.399,0,19.8-6.1,24.1-15.5l104.9-231.2
					c6-13.3,0.1-29-13.101-35l-19.7-8.899c-3.399-1.601-7.1-2.4-10.899-2.4c-10.4,0-19.8,6.1-24.101,15.5L456.7,637.2
					c-2.9,6.399-3.101,13.6-0.7,20.2C458.5,664,463.4,669.3,469.8,672.2z M473.8,645l104.9-231.2c1.2-2.7,4-4.399,7-4.399
					c1.1,0,2.1,0.199,3.1,0.699l19.7,8.9c1.8,0.8,3.2,2.3,3.9,4.2c0.699,1.899,0.699,4-0.2,5.8L507.4,660.2
					c-1.2,2.7-4,4.399-7,4.399c-1.101,0-2.101-0.199-3.101-0.699l-19.7-8.9c-1.8-0.8-3.199-2.3-3.899-4.2
					C473,648.9,473,646.8,473.8,645z"/>
			</g>
		</g>
		<g>
			<path fill="#3E3E3E" d="M1047.1,76.6H39c-19.8,0-35.9,16.1-35.9,35.9v849c0,19.8,16.1,35.9,35.9,35.9h1008.1
				c19.801,0,35.9-16.101,35.9-35.9v-849C1083.1,92.7,1066.9,76.6,1047.1,76.6z M21.9,738.3h138.3c5.2,0,9.4-4.2,9.4-9.399
				c0-5.2-4.2-9.4-9.4-9.4H21.9V224.3h1042.4v96.9H867.8c-5.2,0-9.399,4.2-9.399,9.399c0,5.2,4.199,9.4,9.399,9.4h196.5v445.9H837.5
				c-5.2,0-9.4,4.199-9.4,9.399s4.2,9.4,9.4,9.4h226.8v101.7H21.9V738.3z M39,95.4h1008.1c9.4,0,17.101,7.7,17.101,17.1v33.3H379.1
				c-5.2,0-9.4,4.2-9.4,9.4c0,5.2,4.2,9.4,9.4,9.4h685.1v40.9H21.9v-93C21.9,103.1,29.5,95.4,39,95.4z M1047.1,978.6H39
				c-9.4,0-17.1-7.699-17.1-17.1v-36.3h1042.4v36.3C1064.3,970.9,1056.6,978.6,1047.1,978.6z"/>
			<path fill="#3E3E3E" d="M87.3,184.5c18.6,0,33.7-15.1,33.7-33.7c0-18.6-15.1-33.7-33.7-33.7c-18.6,0-33.7,15.1-33.7,33.7
				C53.6,169.4,68.7,184.5,87.3,184.5z M87.3,135.9c8.2,0,14.9,6.7,14.9,14.9c0,8.2-6.7,14.9-14.9,14.9c-8.2,0-14.9-6.7-14.9-14.9
				C72.4,142.5,79.1,135.9,87.3,135.9z"/>
			<path fill="#3E3E3E" d="M181.3,184.5c18.6,0,33.7-15.1,33.7-33.7c0-18.6-15.1-33.7-33.7-33.7c-18.6,0-33.7,15.1-33.7,33.7
				C147.5,169.4,162.7,184.5,181.3,184.5z M181.3,135.9c8.2,0,14.9,6.7,14.9,14.9c0,8.2-6.7,14.9-14.9,14.9
				c-8.2,0-14.9-6.7-14.9-14.9C166.3,142.5,173,135.9,181.3,135.9z"/>
			<path fill="#3E3E3E" d="M275.2,184.5c18.6,0,33.7-15.1,33.7-33.7c0-18.6-15.1-33.7-33.7-33.7c-18.6,0-33.7,15.1-33.7,33.7
				C241.5,169.4,256.6,184.5,275.2,184.5z M275.2,135.9c8.2,0,14.9,6.7,14.9,14.9c0,8.2-6.7,14.9-14.9,14.9
				c-8.2,0-14.9-6.7-14.9-14.9C260.3,142.5,267,135.9,275.2,135.9z"/>
		</g>
	</g>
</g>
<g id="Components">
</g>
</svg>
